<svg xmlns="http://www.w3.org/2000/svg" viewBox="0 0 240 94" width="960" height="376" shape-rendering="crispEdges" role="img" aria-label="AHMET ERDOGAN pixel-art banner">
<defs>
<linearGradient id="bg" x1="0" y1="0" x2="0" y2="1">
<stop offset="0" stop-color="#0d0221"/><stop offset="1" stop-color="#1a0636"/>
</linearGradient>
</defs>
<rect width="240" height="94" fill="url(#bg)"/>
<rect x="57.10" y="14.85" width="1.70" height="1.70" fill="#ff2e97"/><rect x="58.80" y="14.85" width="1.70" height="1.70" fill="#ff2e97"/><rect x="60.50" y="14.85" width="1.70" height="1.70" fill="#ff2e97"/><rect x="55.40" y="16.55" width="1.70" height="1.70" fill="#ff2e97"/><rect x="62.20" y="16.55" width="1.70" height="1.70" fill="#ff2e97"/><rect x="55.40" y="18.25" width="1.70" height="1.70" fill="#ff2e97"/><rect x="62.20" y="18.25" width="1.70" height="1.70" fill="#ff2e97"/><rect x="55.40" y="19.95" width="1.70" height="1.70" fill="#ff2e97"/><rect x="57.10" y="19.95" width="1.70" height="1.70" fill="#ff2e97"/><rect x="58.80" y="19.95" width="1.70" height="1.70" fill="#ff2e97"/><rect x="60.50" y="19.95" width="1.70" height="1.70" fill="#ff2e97"/><rect x="62.20" y="19.95" width="1.70" height="1.70" fill="#ff2e97"/><rect x="55.40" y="21.65" width="1.70" height="1.70" fill="#ff2e97"/><rect x="62.20" y="21.65" width="1.70" height="1.70" fill="#ff2e97"/><rect x="55.40" y="23.35" width="1.70" height="1.70" fill="#ff2e97"/><rect x="62.20" y="23.35" width="1.70" height="1.70" fill="#ff2e97"/><rect x="55.40" y="25.05" width="1.70" height="1.70" fill="#ff2e97"/><rect x="62.20" y="25.05" width="1.70" height="1.70" fill="#ff2e97"/><rect x="65.60" y="14.85" width="1.70" height="1.70" fill="#ff2e97"/><rect x="72.40" y="14.85" width="1.70" height="1.70" fill="#ff2e97"/><rect x="65.60" y="16.55" width="1.70" height="1.70" fill="#ff2e97"/><rect x="72.40" y="16.55" width="1.70" height="1.70" fill="#ff2e97"/><rect x="65.60" y="18.25" width="1.70" height="1.70" fill="#ff2e97"/><rect x="72.40" y="18.25" width="1.70" height="1.70" fill="#ff2e97"/><rect x="65.60" y="19.95" width="1.70" height="1.70" fill="#ff2e97"/><rect x="67.30" y="19.95" width="1.70" height="1.70" fill="#ff2e97"/><rect x="69.00" y="19.95" width="1.70" height="1.70" fill="#ff2e97"/><rect x="70.70" y="19.95" width="1.70" height="1.70" fill="#ff2e97"/><rect x="72.40" y="19.95" width="1.70" height="1.70" fill="#ff2e97"/><rect x="65.60" y="21.65" width="1.70" height="1.70" fill="#ff2e97"/><rect x="72.40" y="21.65" width="1.70" height="1.70" fill="#ff2e97"/><rect x="65.60" y="23.35" width="1.70" height="1.70" fill="#ff2e97"/><rect x="72.40" y="23.35" width="1.70" height="1.70" fill="#ff2e97"/><rect x="65.60" y="25.05" width="1.70" height="1.70" fill="#ff2e97"/><rect x="72.40" y="25.05" width="1.70" height="1.70" fill="#ff2e97"/><rect x="75.80" y="14.85" width="1.70" height="1.70" fill="#ff2e97"/><rect x="82.60" y="14.85" width="1.70" height="1.70" fill="#ff2e97"/><rect x="75.80" y="16.55" width="1.70" height="1.70" fill="#ff2e97"/><rect x="77.50" y="16.55" width="1.70" height="1.70" fill="#ff2e97"/><rect x="80.90" y="16.55" width="1.70" height="1.70" fill="#ff2e97"/><rect x="82.60" y="16.55" width="1.70" height="1.70" fill="#ff2e97"/><rect x="75.80" y="18.25" width="1.70" height="1.70" fill="#ff2e97"/><rect x="79.20" y="18.25" width="1.70" height="1.70" fill="#ff2e97"/><rect x="82.60" y="18.25" width="1.70" height="1.70" fill="#ff2e97"/><rect x="75.80" y="19.95" width="1.70" height="1.70" fill="#ff2e97"/><rect x="79.20" y="19.95" width="1.70" height="1.70" fill="#ff2e97"/><rect x="82.60" y="19.95" width="1.70" height="1.70" fill="#ff2e97"/><rect x="75.80" y="21.65" width="1.70" height="1.70" fill="#ff2e97"/><rect x="82.60" y="21.65" width="1.70" height="1.70" fill="#ff2e97"/><rect x="75.80" y="23.35" width="1.70" height="1.70" fill="#ff2e97"/><rect x="82.60" y="23.35" width="1.70" height="1.70" fill="#ff2e97"/><rect x="75.80" y="25.05" width="1.70" height="1.70" fill="#ff2e97"/><rect x="82.60" y="25.05" width="1.70" height="1.70" fill="#ff2e97"/><rect x="86.00" y="14.85" width="1.70" height="1.70" fill="#ff2e97"/><rect x="87.70" y="14.85" width="1.70" height="1.70" fill="#ff2e97"/><rect x="89.40" y="14.85" width="1.70" height="1.70" fill="#ff2e97"/><rect x="91.10" y="14.85" width="1.70" height="1.70" fill="#ff2e97"/><rect x="92.80" y="14.85" width="1.70" height="1.70" fill="#ff2e97"/><rect x="86.00" y="16.55" width="1.70" height="1.70" fill="#ff2e97"/><rect x="86.00" y="18.25" width="1.70" height="1.70" fill="#ff2e97"/><rect x="86.00" y="19.95" width="1.70" height="1.70" fill="#ff2e97"/><rect x="87.70" y="19.95" width="1.70" height="1.70" fill="#ff2e97"/><rect x="89.40" y="19.95" width="1.70" height="1.70" fill="#ff2e97"/><rect x="91.10" y="19.95" width="1.70" height="1.70" fill="#ff2e97"/><rect x="86.00" y="21.65" width="1.70" height="1.70" fill="#ff2e97"/><rect x="86.00" y="23.35" width="1.70" height="1.70" fill="#ff2e97"/><rect x="86.00" y="25.05" width="1.70" height="1.70" fill="#ff2e97"/><rect x="87.70" y="25.05" width="1.70" height="1.70" fill="#ff2e97"/><rect x="89.40" y="25.05" width="1.70" height="1.70" fill="#ff2e97"/><rect x="91.10" y="25.05" width="1.70" height="1.70" fill="#ff2e97"/><rect x="92.80" y="25.05" width="1.70" height="1.70" fill="#ff2e97"/><rect x="96.20" y="14.85" width="1.70" height="1.70" fill="#ff2e97"/><rect x="97.90" y="14.85" width="1.70" height="1.70" fill="#ff2e97"/><rect x="99.60" y="14.85" width="1.70" height="1.70" fill="#ff2e97"/><rect x="101.30" y="14.85" width="1.70" height="1.70" fill="#ff2e97"/><rect x="103.00" y="14.85" width="1.70" height="1.70" fill="#ff2e97"/><rect x="99.60" y="16.55" width="1.70" height="1.70" fill="#ff2e97"/><rect x="99.60" y="18.25" width="1.70" height="1.70" fill="#ff2e97"/><rect x="99.60" y="19.95" width="1.70" height="1.70" fill="#ff2e97"/><rect x="99.60" y="21.65" width="1.70" height="1.70" fill="#ff2e97"/><rect x="99.60" y="23.35" width="1.70" height="1.70" fill="#ff2e97"/><rect x="99.60" y="25.05" width="1.70" height="1.70" fill="#ff2e97"/><rect x="116.60" y="14.85" width="1.70" height="1.70" fill="#ff2e97"/><rect x="118.30" y="14.85" width="1.70" height="1.70" fill="#ff2e97"/><rect x="120.00" y="14.85" width="1.70" height="1.70" fill="#ff2e97"/><rect x="121.70" y="14.85" width="1.70" height="1.70" fill="#ff2e97"/><rect x="123.40" y="14.85" width="1.70" height="1.70" fill="#ff2e97"/><rect x="116.60" y="16.55" width="1.70" height="1.70" fill="#ff2e97"/><rect x="116.60" y="18.25" width="1.70" height="1.70" fill="#ff2e97"/><rect x="116.60" y="19.95" width="1.70" height="1.70" fill="#ff2e97"/><rect x="118.30" y="19.95" width="1.70" height="1.70" fill="#ff2e97"/><rect x="120.00" y="19.95" width="1.70" height="1.70" fill="#ff2e97"/><rect x="121.70" y="19.95" width="1.70" height="1.70" fill="#ff2e97"/><rect x="116.60" y="21.65" width="1.70" height="1.70" fill="#ff2e97"/><rect x="116.60" y="23.35" width="1.70" height="1.70" fill="#ff2e97"/><rect x="116.60" y="25.05" width="1.70" height="1.70" fill="#ff2e97"/><rect x="118.30" y="25.05" width="1.70" height="1.70" fill="#ff2e97"/><rect x="120.00" y="25.05" width="1.70" height="1.70" fill="#ff2e97"/><rect x="121.70" y="25.05" width="1.70" height="1.70" fill="#ff2e97"/><rect x="123.40" y="25.05" width="1.70" height="1.70" fill="#ff2e97"/><rect x="126.80" y="14.85" width="1.70" height="1.70" fill="#ff2e97"/><rect x="128.50" y="14.85" width="1.70" height="1.70" fill="#ff2e97"/><rect x="130.20" y="14.85" width="1.70" height="1.70" fill="#ff2e97"/><rect x="131.90" y="14.85" width="1.70" height="1.70" fill="#ff2e97"/><rect x="126.80" y="16.55" width="1.70" height="1.70" fill="#ff2e97"/><rect x="133.60" y="16.55" width="1.70" height="1.70" fill="#ff2e97"/><rect x="126.80" y="18.25" width="1.70" height="1.70" fill="#ff2e97"/><rect x="133.60" y="18.25" width="1.70" height="1.70" fill="#ff2e97"/><rect x="126.80" y="19.95" width="1.70" height="1.70" fill="#ff2e97"/><rect x="128.50" y="19.95" width="1.70" height="1.70" fill="#ff2e97"/><rect x="130.20" y="19.95" width="1.70" height="1.70" fill="#ff2e97"/><rect x="131.90" y="19.95" width="1.70" height="1.70" fill="#ff2e97"/><rect x="126.80" y="21.65" width="1.70" height="1.70" fill="#ff2e97"/><rect x="130.20" y="21.65" width="1.70" height="1.70" fill="#ff2e97"/><rect x="126.80" y="23.35" width="1.70" height="1.70" fill="#ff2e97"/><rect x="131.90" y="23.35" width="1.70" height="1.70" fill="#ff2e97"/><rect x="126.80" y="25.05" width="1.70" height="1.70" fill="#ff2e97"/><rect x="133.60" y="25.05" width="1.70" height="1.70" fill="#ff2e97"/><rect x="137.00" y="14.85" width="1.70" height="1.70" fill="#ff2e97"/><rect x="138.70" y="14.85" width="1.70" height="1.70" fill="#ff2e97"/><rect x="140.40" y="14.85" width="1.70" height="1.70" fill="#ff2e97"/><rect x="142.10" y="14.85" width="1.70" height="1.70" fill="#ff2e97"/><rect x="137.00" y="16.55" width="1.70" height="1.70" fill="#ff2e97"/><rect x="143.80" y="16.55" width="1.70" height="1.70" fill="#ff2e97"/><rect x="137.00" y="18.25" width="1.70" height="1.70" fill="#ff2e97"/><rect x="143.80" y="18.25" width="1.70" height="1.70" fill="#ff2e97"/><rect x="137.00" y="19.95" width="1.70" height="1.70" fill="#ff2e97"/><rect x="143.80" y="19.95" width="1.70" height="1.70" fill="#ff2e97"/><rect x="137.00" y="21.65" width="1.70" height="1.70" fill="#ff2e97"/><rect x="143.80" y="21.65" width="1.70" height="1.70" fill="#ff2e97"/><rect x="137.00" y="23.35" width="1.70" height="1.70" fill="#ff2e97"/><rect x="143.80" y="23.35" width="1.70" height="1.70" fill="#ff2e97"/><rect x="137.00" y="25.05" width="1.70" height="1.70" fill="#ff2e97"/><rect x="138.70" y="25.05" width="1.70" height="1.70" fill="#ff2e97"/><rect x="140.40" y="25.05" width="1.70" height="1.70" fill="#ff2e97"/><rect x="142.10" y="25.05" width="1.70" height="1.70" fill="#ff2e97"/><rect x="148.90" y="14.85" width="1.70" height="1.70" fill="#ff2e97"/><rect x="150.60" y="14.85" width="1.70" height="1.70" fill="#ff2e97"/><rect x="152.30" y="14.85" width="1.70" height="1.70" fill="#ff2e97"/><rect x="147.20" y="16.55" width="1.70" height="1.70" fill="#ff2e97"/><rect x="154.00" y="16.55" width="1.70" height="1.70" fill="#ff2e97"/><rect x="147.20" y="18.25" width="1.70" height="1.70" fill="#ff2e97"/><rect x="154.00" y="18.25" width="1.70" height="1.70" fill="#ff2e97"/><rect x="147.20" y="19.95" width="1.70" height="1.70" fill="#ff2e97"/><rect x="154.00" y="19.95" width="1.70" height="1.70" fill="#ff2e97"/><rect x="147.20" y="21.65" width="1.70" height="1.70" fill="#ff2e97"/><rect x="154.00" y="21.65" width="1.70" height="1.70" fill="#ff2e97"/><rect x="147.20" y="23.35" width="1.70" height="1.70" fill="#ff2e97"/><rect x="154.00" y="23.35" width="1.70" height="1.70" fill="#ff2e97"/><rect x="148.90" y="25.05" width="1.70" height="1.70" fill="#ff2e97"/><rect x="150.60" y="25.05" width="1.70" height="1.70" fill="#ff2e97"/><rect x="152.30" y="25.05" width="1.70" height="1.70" fill="#ff2e97"/><rect x="159.10" y="14.85" width="1.70" height="1.70" fill="#ff2e97"/><rect x="160.80" y="14.85" width="1.70" height="1.70" fill="#ff2e97"/><rect x="162.50" y="14.85" width="1.70" height="1.70" fill="#ff2e97"/><rect x="157.40" y="16.55" width="1.70" height="1.70" fill="#ff2e97"/><rect x="164.20" y="16.55" width="1.70" height="1.70" fill="#ff2e97"/><rect x="157.40" y="18.25" width="1.70" height="1.70" fill="#ff2e97"/><rect x="157.40" y="19.95" width="1.70" height="1.70" fill="#ff2e97"/><rect x="160.80" y="19.95" width="1.70" height="1.70" fill="#ff2e97"/><rect x="162.50" y="19.95" width="1.70" height="1.70" fill="#ff2e97"/><rect x="164.20" y="19.95" width="1.70" height="1.70" fill="#ff2e97"/><rect x="157.40" y="21.65" width="1.70" height="1.70" fill="#ff2e97"/><rect x="164.20" y="21.65" width="1.70" height="1.70" fill="#ff2e97"/><rect x="157.40" y="23.35" width="1.70" height="1.70" fill="#ff2e97"/><rect x="164.20" y="23.35" width="1.70" height="1.70" fill="#ff2e97"/><rect x="159.10" y="25.05" width="1.70" height="1.70" fill="#ff2e97"/><rect x="160.80" y="25.05" width="1.70" height="1.70" fill="#ff2e97"/><rect x="162.50" y="25.05" width="1.70" height="1.70" fill="#ff2e97"/><rect x="169.30" y="14.85" width="1.70" height="1.70" fill="#ff2e97"/><rect x="171.00" y="14.85" width="1.70" height="1.70" fill="#ff2e97"/><rect x="172.70" y="14.85" width="1.70" height="1.70" fill="#ff2e97"/><rect x="167.60" y="16.55" width="1.70" height="1.70" fill="#ff2e97"/><rect x="174.40" y="16.55" width="1.70" height="1.70" fill="#ff2e97"/><rect x="167.60" y="18.25" width="1.70" height="1.70" fill="#ff2e97"/><rect x="174.40" y="18.25" width="1.70" height="1.70" fill="#ff2e97"/><rect x="167.60" y="19.95" width="1.70" height="1.70" fill="#ff2e97"/><rect x="169.30" y="19.95" width="1.70" height="1.70" fill="#ff2e97"/><rect x="171.00" y="19.95" width="1.70" height="1.70" fill="#ff2e97"/><rect x="172.70" y="19.95" width="1.70" height="1.70" fill="#ff2e97"/><rect x="174.40" y="19.95" width="1.70" height="1.70" fill="#ff2e97"/><rect x="167.60" y="21.65" width="1.70" height="1.70" fill="#ff2e97"/><rect x="174.40" y="21.65" width="1.70" height="1.70" fill="#ff2e97"/><rect x="167.60" y="23.35" width="1.70" height="1.70" fill="#ff2e97"/><rect x="174.40" y="23.35" width="1.70" height="1.70" fill="#ff2e97"/><rect x="167.60" y="25.05" width="1.70" height="1.70" fill="#ff2e97"/><rect x="174.40" y="25.05" width="1.70" height="1.70" fill="#ff2e97"/><rect x="177.80" y="14.85" width="1.70" height="1.70" fill="#ff2e97"/><rect x="184.60" y="14.85" width="1.70" height="1.70" fill="#ff2e97"/><rect x="177.80" y="16.55" width="1.70" height="1.70" fill="#ff2e97"/><rect x="179.50" y="16.55" width="1.70" height="1.70" fill="#ff2e97"/><rect x="184.60" y="16.55" width="1.70" height="1.70" fill="#ff2e97"/><rect x="177.80" y="18.25" width="1.70" height="1.70" fill="#ff2e97"/><rect x="181.20" y="18.25" width="1.70" height="1.70" fill="#ff2e97"/><rect x="184.60" y="18.25" width="1.70" height="1.70" fill="#ff2e97"/><rect x="177.80" y="19.95" width="1.70" height="1.70" fill="#ff2e97"/><rect x="182.90" y="19.95" width="1.70" height="1.70" fill="#ff2e97"/><rect x="184.60" y="19.95" width="1.70" height="1.70" fill="#ff2e97"/><rect x="177.80" y="21.65" width="1.70" height="1.70" fill="#ff2e97"/><rect x="184.60" y="21.65" width="1.70" height="1.70" fill="#ff2e97"/><rect x="177.80" y="23.35" width="1.70" height="1.70" fill="#ff2e97"/><rect x="184.60" y="23.35" width="1.70" height="1.70" fill="#ff2e97"/><rect x="177.80" y="25.05" width="1.70" height="1.70" fill="#ff2e97"/><rect x="184.60" y="25.05" width="1.70" height="1.70" fill="#ff2e97"/><rect x="56.25" y="14.00" width="1.70" height="1.70" fill="#00fff9"/><rect x="57.95" y="14.00" width="1.70" height="1.70" fill="#00fff9"/><rect x="59.65" y="14.00" width="1.70" height="1.70" fill="#00fff9"/><rect x="54.55" y="15.70" width="1.70" height="1.70" fill="#00fff9"/><rect x="61.35" y="15.70" width="1.70" height="1.70" fill="#00fff9"/><rect x="54.55" y="17.40" width="1.70" height="1.70" fill="#00fff9"/><rect x="61.35" y="17.40" width="1.70" height="1.70" fill="#00fff9"/><rect x="54.55" y="19.10" width="1.70" height="1.70" fill="#00fff9"/><rect x="56.25" y="19.10" width="1.70" height="1.70" fill="#00fff9"/><rect x="57.95" y="19.10" width="1.70" height="1.70" fill="#00fff9"/><rect x="59.65" y="19.10" width="1.70" height="1.70" fill="#00fff9"/><rect x="61.35" y="19.10" width="1.70" height="1.70" fill="#00fff9"/><rect x="54.55" y="20.80" width="1.70" height="1.70" fill="#00fff9"/><rect x="61.35" y="20.80" width="1.70" height="1.70" fill="#00fff9"/><rect x="54.55" y="22.50" width="1.70" height="1.70" fill="#00fff9"/><rect x="61.35" y="22.50" width="1.70" height="1.70" fill="#00fff9"/><rect x="54.55" y="24.20" width="1.70" height="1.70" fill="#00fff9"/><rect x="61.35" y="24.20" width="1.70" height="1.70" fill="#00fff9"/><rect x="64.75" y="14.00" width="1.70" height="1.70" fill="#00fff9"/><rect x="71.55" y="14.00" width="1.70" height="1.70" fill="#00fff9"/><rect x="64.75" y="15.70" width="1.70" height="1.70" fill="#00fff9"/><rect x="71.55" y="15.70" width="1.70" height="1.70" fill="#00fff9"/><rect x="64.75" y="17.40" width="1.70" height="1.70" fill="#00fff9"/><rect x="71.55" y="17.40" width="1.70" height="1.70" fill="#00fff9"/><rect x="64.75" y="19.10" width="1.70" height="1.70" fill="#00fff9"/><rect x="66.45" y="19.10" width="1.70" height="1.70" fill="#00fff9"/><rect x="68.15" y="19.10" width="1.70" height="1.70" fill="#00fff9"/><rect x="69.85" y="19.10" width="1.70" height="1.70" fill="#00fff9"/><rect x="71.55" y="19.10" width="1.70" height="1.70" fill="#00fff9"/><rect x="64.75" y="20.80" width="1.70" height="1.70" fill="#00fff9"/><rect x="71.55" y="20.80" width="1.70" height="1.70" fill="#00fff9"/><rect x="64.75" y="22.50" width="1.70" height="1.70" fill="#00fff9"/><rect x="71.55" y="22.50" width="1.70" height="1.70" fill="#00fff9"/><rect x="64.75" y="24.20" width="1.70" height="1.70" fill="#00fff9"/><rect x="71.55" y="24.20" width="1.70" height="1.70" fill="#00fff9"/><rect x="74.95" y="14.00" width="1.70" height="1.70" fill="#00fff9"/><rect x="81.75" y="14.00" width="1.70" height="1.70" fill="#00fff9"/><rect x="74.95" y="15.70" width="1.70" height="1.70" fill="#00fff9"/><rect x="76.65" y="15.70" width="1.70" height="1.70" fill="#00fff9"/><rect x="80.05" y="15.70" width="1.70" height="1.70" fill="#00fff9"/><rect x="81.75" y="15.70" width="1.70" height="1.70" fill="#00fff9"/><rect x="74.95" y="17.40" width="1.70" height="1.70" fill="#00fff9"/><rect x="78.35" y="17.40" width="1.70" height="1.70" fill="#00fff9"/><rect x="81.75" y="17.40" width="1.70" height="1.70" fill="#00fff9"/><rect x="74.95" y="19.10" width="1.70" height="1.70" fill="#00fff9"/><rect x="78.35" y="19.10" width="1.70" height="1.70" fill="#00fff9"/><rect x="81.75" y="19.10" width="1.70" height="1.70" fill="#00fff9"/><rect x="74.95" y="20.80" width="1.70" height="1.70" fill="#00fff9"/><rect x="81.75" y="20.80" width="1.70" height="1.70" fill="#00fff9"/><rect x="74.95" y="22.50" width="1.70" height="1.70" fill="#00fff9"/><rect x="81.75" y="22.50" width="1.70" height="1.70" fill="#00fff9"/><rect x="74.95" y="24.20" width="1.70" height="1.70" fill="#00fff9"/><rect x="81.75" y="24.20" width="1.70" height="1.70" fill="#00fff9"/><rect x="85.15" y="14.00" width="1.70" height="1.70" fill="#00fff9"/><rect x="86.85" y="14.00" width="1.70" height="1.70" fill="#00fff9"/><rect x="88.55" y="14.00" width="1.70" height="1.70" fill="#00fff9"/><rect x="90.25" y="14.00" width="1.70" height="1.70" fill="#00fff9"/><rect x="91.95" y="14.00" width="1.70" height="1.70" fill="#00fff9"/><rect x="85.15" y="15.70" width="1.70" height="1.70" fill="#00fff9"/><rect x="85.15" y="17.40" width="1.70" height="1.70" fill="#00fff9"/><rect x="85.15" y="19.10" width="1.70" height="1.70" fill="#00fff9"/><rect x="86.85" y="19.10" width="1.70" height="1.70" fill="#00fff9"/><rect x="88.55" y="19.10" width="1.70" height="1.70" fill="#00fff9"/><rect x="90.25" y="19.10" width="1.70" height="1.70" fill="#00fff9"/><rect x="85.15" y="20.80" width="1.70" height="1.70" fill="#00fff9"/><rect x="85.15" y="22.50" width="1.70" height="1.70" fill="#00fff9"/><rect x="85.15" y="24.20" width="1.70" height="1.70" fill="#00fff9"/><rect x="86.85" y="24.20" width="1.70" height="1.70" fill="#00fff9"/><rect x="88.55" y="24.20" width="1.70" height="1.70" fill="#00fff9"/><rect x="90.25" y="24.20" width="1.70" height="1.70" fill="#00fff9"/><rect x="91.95" y="24.20" width="1.70" height="1.70" fill="#00fff9"/><rect x="95.35" y="14.00" width="1.70" height="1.70" fill="#00fff9"/><rect x="97.05" y="14.00" width="1.70" height="1.70" fill="#00fff9"/><rect x="98.75" y="14.00" width="1.70" height="1.70" fill="#00fff9"/><rect x="100.45" y="14.00" width="1.70" height="1.70" fill="#00fff9"/><rect x="102.15" y="14.00" width="1.70" height="1.70" fill="#00fff9"/><rect x="98.75" y="15.70" width="1.70" height="1.70" fill="#00fff9"/><rect x="98.75" y="17.40" width="1.70" height="1.70" fill="#00fff9"/><rect x="98.75" y="19.10" width="1.70" height="1.70" fill="#00fff9"/><rect x="98.75" y="20.80" width="1.70" height="1.70" fill="#00fff9"/><rect x="98.75" y="22.50" width="1.70" height="1.70" fill="#00fff9"/><rect x="98.75" y="24.20" width="1.70" height="1.70" fill="#00fff9"/><rect x="115.75" y="14.00" width="1.70" height="1.70" fill="#00fff9"/><rect x="117.45" y="14.00" width="1.70" height="1.70" fill="#00fff9"/><rect x="119.15" y="14.00" width="1.70" height="1.70" fill="#00fff9"/><rect x="120.85" y="14.00" width="1.70" height="1.70" fill="#00fff9"/><rect x="122.55" y="14.00" width="1.70" height="1.70" fill="#00fff9"/><rect x="115.75" y="15.70" width="1.70" height="1.70" fill="#00fff9"/><rect x="115.75" y="17.40" width="1.70" height="1.70" fill="#00fff9"/><rect x="115.75" y="19.10" width="1.70" height="1.70" fill="#00fff9"/><rect x="117.45" y="19.10" width="1.70" height="1.70" fill="#00fff9"/><rect x="119.15" y="19.10" width="1.70" height="1.70" fill="#00fff9"/><rect x="120.85" y="19.10" width="1.70" height="1.70" fill="#00fff9"/><rect x="115.75" y="20.80" width="1.70" height="1.70" fill="#00fff9"/><rect x="115.75" y="22.50" width="1.70" height="1.70" fill="#00fff9"/><rect x="115.75" y="24.20" width="1.70" height="1.70" fill="#00fff9"/><rect x="117.45" y="24.20" width="1.70" height="1.70" fill="#00fff9"/><rect x="119.15" y="24.20" width="1.70" height="1.70" fill="#00fff9"/><rect x="120.85" y="24.20" width="1.70" height="1.70" fill="#00fff9"/><rect x="122.55" y="24.20" width="1.70" height="1.70" fill="#00fff9"/><rect x="125.95" y="14.00" width="1.70" height="1.70" fill="#00fff9"/><rect x="127.65" y="14.00" width="1.70" height="1.70" fill="#00fff9"/><rect x="129.35" y="14.00" width="1.70" height="1.70" fill="#00fff9"/><rect x="131.05" y="14.00" width="1.70" height="1.70" fill="#00fff9"/><rect x="125.95" y="15.70" width="1.70" height="1.70" fill="#00fff9"/><rect x="132.75" y="15.70" width="1.70" height="1.70" fill="#00fff9"/><rect x="125.95" y="17.40" width="1.70" height="1.70" fill="#00fff9"/><rect x="132.75" y="17.40" width="1.70" height="1.70" fill="#00fff9"/><rect x="125.95" y="19.10" width="1.70" height="1.70" fill="#00fff9"/><rect x="127.65" y="19.10" width="1.70" height="1.70" fill="#00fff9"/><rect x="129.35" y="19.10" width="1.70" height="1.70" fill="#00fff9"/><rect x="131.05" y="19.10" width="1.70" height="1.70" fill="#00fff9"/><rect x="125.95" y="20.80" width="1.70" height="1.70" fill="#00fff9"/><rect x="129.35" y="20.80" width="1.70" height="1.70" fill="#00fff9"/><rect x="125.95" y="22.50" width="1.70" height="1.70" fill="#00fff9"/><rect x="131.05" y="22.50" width="1.70" height="1.70" fill="#00fff9"/><rect x="125.95" y="24.20" width="1.70" height="1.70" fill="#00fff9"/><rect x="132.75" y="24.20" width="1.70" height="1.70" fill="#00fff9"/><rect x="136.15" y="14.00" width="1.70" height="1.70" fill="#00fff9"/><rect x="137.85" y="14.00" width="1.70" height="1.70" fill="#00fff9"/><rect x="139.55" y="14.00" width="1.70" height="1.70" fill="#00fff9"/><rect x="141.25" y="14.00" width="1.70" height="1.70" fill="#00fff9"/><rect x="136.15" y="15.70" width="1.70" height="1.70" fill="#00fff9"/><rect x="142.95" y="15.70" width="1.70" height="1.70" fill="#00fff9"/><rect x="136.15" y="17.40" width="1.70" height="1.70" fill="#00fff9"/><rect x="142.95" y="17.40" width="1.70" height="1.70" fill="#00fff9"/><rect x="136.15" y="19.10" width="1.70" height="1.70" fill="#00fff9"/><rect x="142.95" y="19.10" width="1.70" height="1.70" fill="#00fff9"/><rect x="136.15" y="20.80" width="1.70" height="1.70" fill="#00fff9"/><rect x="142.95" y="20.80" width="1.70" height="1.70" fill="#00fff9"/><rect x="136.15" y="22.50" width="1.70" height="1.70" fill="#00fff9"/><rect x="142.95" y="22.50" width="1.70" height="1.70" fill="#00fff9"/><rect x="136.15" y="24.20" width="1.70" height="1.70" fill="#00fff9"/><rect x="137.85" y="24.20" width="1.70" height="1.70" fill="#00fff9"/><rect x="139.55" y="24.20" width="1.70" height="1.70" fill="#00fff9"/><rect x="141.25" y="24.20" width="1.70" height="1.70" fill="#00fff9"/><rect x="148.05" y="14.00" width="1.70" height="1.70" fill="#00fff9"/><rect x="149.75" y="14.00" width="1.70" height="1.70" fill="#00fff9"/><rect x="151.45" y="14.00" width="1.70" height="1.70" fill="#00fff9"/><rect x="146.35" y="15.70" width="1.70" height="1.70" fill="#00fff9"/><rect x="153.15" y="15.70" width="1.70" height="1.70" fill="#00fff9"/><rect x="146.35" y="17.40" width="1.70" height="1.70" fill="#00fff9"/><rect x="153.15" y="17.40" width="1.70" height="1.70" fill="#00fff9"/><rect x="146.35" y="19.10" width="1.70" height="1.70" fill="#00fff9"/><rect x="153.15" y="19.10" width="1.70" height="1.70" fill="#00fff9"/><rect x="146.35" y="20.80" width="1.70" height="1.70" fill="#00fff9"/><rect x="153.15" y="20.80" width="1.70" height="1.70" fill="#00fff9"/><rect x="146.35" y="22.50" width="1.70" height="1.70" fill="#00fff9"/><rect x="153.15" y="22.50" width="1.70" height="1.70" fill="#00fff9"/><rect x="148.05" y="24.20" width="1.70" height="1.70" fill="#00fff9"/><rect x="149.75" y="24.20" width="1.70" height="1.70" fill="#00fff9"/><rect x="151.45" y="24.20" width="1.70" height="1.70" fill="#00fff9"/><rect x="158.25" y="14.00" width="1.70" height="1.70" fill="#00fff9"/><rect x="159.95" y="14.00" width="1.70" height="1.70" fill="#00fff9"/><rect x="161.65" y="14.00" width="1.70" height="1.70" fill="#00fff9"/><rect x="156.55" y="15.70" width="1.70" height="1.70" fill="#00fff9"/><rect x="163.35" y="15.70" width="1.70" height="1.70" fill="#00fff9"/><rect x="156.55" y="17.40" width="1.70" height="1.70" fill="#00fff9"/><rect x="156.55" y="19.10" width="1.70" height="1.70" fill="#00fff9"/><rect x="159.95" y="19.10" width="1.70" height="1.70" fill="#00fff9"/><rect x="161.65" y="19.10" width="1.70" height="1.70" fill="#00fff9"/><rect x="163.35" y="19.10" width="1.70" height="1.70" fill="#00fff9"/><rect x="156.55" y="20.80" width="1.70" height="1.70" fill="#00fff9"/><rect x="163.35" y="20.80" width="1.70" height="1.70" fill="#00fff9"/><rect x="156.55" y="22.50" width="1.70" height="1.70" fill="#00fff9"/><rect x="163.35" y="22.50" width="1.70" height="1.70" fill="#00fff9"/><rect x="158.25" y="24.20" width="1.70" height="1.70" fill="#00fff9"/><rect x="159.95" y="24.20" width="1.70" height="1.70" fill="#00fff9"/><rect x="161.65" y="24.20" width="1.70" height="1.70" fill="#00fff9"/><rect x="168.45" y="14.00" width="1.70" height="1.70" fill="#00fff9"/><rect x="170.15" y="14.00" width="1.70" height="1.70" fill="#00fff9"/><rect x="171.85" y="14.00" width="1.70" height="1.70" fill="#00fff9"/><rect x="166.75" y="15.70" width="1.70" height="1.70" fill="#00fff9"/><rect x="173.55" y="15.70" width="1.70" height="1.70" fill="#00fff9"/><rect x="166.75" y="17.40" width="1.70" height="1.70" fill="#00fff9"/><rect x="173.55" y="17.40" width="1.70" height="1.70" fill="#00fff9"/><rect x="166.75" y="19.10" width="1.70" height="1.70" fill="#00fff9"/><rect x="168.45" y="19.10" width="1.70" height="1.70" fill="#00fff9"/><rect x="170.15" y="19.10" width="1.70" height="1.70" fill="#00fff9"/><rect x="171.85" y="19.10" width="1.70" height="1.70" fill="#00fff9"/><rect x="173.55" y="19.10" width="1.70" height="1.70" fill="#00fff9"/><rect x="166.75" y="20.80" width="1.70" height="1.70" fill="#00fff9"/><rect x="173.55" y="20.80" width="1.70" height="1.70" fill="#00fff9"/><rect x="166.75" y="22.50" width="1.70" height="1.70" fill="#00fff9"/><rect x="173.55" y="22.50" width="1.70" height="1.70" fill="#00fff9"/><rect x="166.75" y="24.20" width="1.70" height="1.70" fill="#00fff9"/><rect x="173.55" y="24.20" width="1.70" height="1.70" fill="#00fff9"/><rect x="176.95" y="14.00" width="1.70" height="1.70" fill="#00fff9"/><rect x="183.75" y="14.00" width="1.70" height="1.70" fill="#00fff9"/><rect x="176.95" y="15.70" width="1.70" height="1.70" fill="#00fff9"/><rect x="178.65" y="15.70" width="1.70" height="1.70" fill="#00fff9"/><rect x="183.75" y="15.70" width="1.70" height="1.70" fill="#00fff9"/><rect x="176.95" y="17.40" width="1.70" height="1.70" fill="#00fff9"/><rect x="180.35" y="17.40" width="1.70" height="1.70" fill="#00fff9"/><rect x="183.75" y="17.40" width="1.70" height="1.70" fill="#00fff9"/><rect x="176.95" y="19.10" width="1.70" height="1.70" fill="#00fff9"/><rect x="182.05" y="19.10" width="1.70" height="1.70" fill="#00fff9"/><rect x="183.75" y="19.10" width="1.70" height="1.70" fill="#00fff9"/><rect x="176.95" y="20.80" width="1.70" height="1.70" fill="#00fff9"/><rect x="183.75" y="20.80" width="1.70" height="1.70" fill="#00fff9"/><rect x="176.95" y="22.50" width="1.70" height="1.70" fill="#00fff9"/><rect x="183.75" y="22.50" width="1.70" height="1.70" fill="#00fff9"/><rect x="176.95" y="24.20" width="1.70" height="1.70" fill="#00fff9"/><rect x="183.75" y="24.20" width="1.70" height="1.70" fill="#00fff9"/><rect x="10.00" y="6.00" width="1.00" height="1.00" fill="#ffffff"/><rect x="10.00" y="6.00" width="0.00" height="0.00" fill="#fff"/><rect x="28.00" y="14.00" width="1.00" height="1.00" fill="#ffffff"/><rect x="28.00" y="14.00" width="0.00" height="0.00" fill="#fff"/><rect x="44.00" y="5.00" width="1.00" height="1.00" fill="#ffffff"/><rect x="44.00" y="5.00" width="0.00" height="0.00" fill="#fff"/><rect x="60.00" y="20.00" width="1.00" height="1.00" fill="#ffffff"/><rect x="60.00" y="20.00" width="0.00" height="0.00" fill="#fff"/><rect x="80.00" y="9.00" width="1.00" height="1.00" fill="#ffffff"/><rect x="80.00" y="9.00" width="0.00" height="0.00" fill="#fff"/><rect x="150.00" y="7.00" width="1.00" height="1.00" fill="#ffffff"/><rect x="150.00" y="7.00" width="0.00" height="0.00" fill="#fff"/><rect x="168.00" y="18.00" width="1.00" height="1.00" fill="#ffffff"/><rect x="168.00" y="18.00" width="0.00" height="0.00" fill="#fff"/><rect x="190.00" y="6.00" width="1.00" height="1.00" fill="#ffffff"/><rect x="190.00" y="6.00" width="0.00" height="0.00" fill="#fff"/><rect x="206.00" y="15.00" width="1.00" height="1.00" fill="#ffffff"/><rect x="206.00" y="15.00" width="0.00" height="0.00" fill="#fff"/><rect x="224.00" y="9.00" width="1.00" height="1.00" fill="#ffffff"/><rect x="224.00" y="9.00" width="0.00" height="0.00" fill="#fff"/><rect x="232.00" y="22.00" width="1.00" height="1.00" fill="#ffffff"/><rect x="232.00" y="22.00" width="0.00" height="0.00" fill="#fff"/><rect x="18.00" y="26.00" width="1.00" height="1.00" fill="#ffffff"/><rect x="18.00" y="26.00" width="0.00" height="0.00" fill="#fff"/><rect x="72.00" y="30.00" width="1.00" height="1.00" fill="#ffffff"/><rect x="72.00" y="30.00" width="0.00" height="0.00" fill="#fff"/><rect x="196.00" y="28.00" width="1.00" height="1.00" fill="#ffffff"/><rect x="196.00" y="28.00" width="0.00" height="0.00" fill="#fff"/><rect x="120.00" y="4.00" width="1.00" height="1.00" fill="#ffffff"/><rect x="120.00" y="4.00" width="0.00" height="0.00" fill="#fff"/><rect x="100.00" y="24.00" width="1.00" height="1.00" fill="#ffffff"/><rect x="100.00" y="24.00" width="0.00" height="0.00" fill="#fff"/><rect x="140.00" y="26.00" width="1.00" height="1.00" fill="#ffffff"/><rect x="140.00" y="26.00" width="0.00" height="0.00" fill="#fff"/><rect x="214.00" y="32.00" width="1.00" height="1.00" fill="#ffffff"/><rect x="214.00" y="32.00" width="0.00" height="0.00" fill="#fff"/><rect x="120.00" y="36.00" width="0.00" height="1.00" fill="#ff2e97"/><rect x="113.44" y="37.00" width="13.11" height="1.00" fill="#ff2e97"/><rect x="110.83" y="38.00" width="18.33" height="1.00" fill="#ff2e97"/><rect x="108.91" y="39.00" width="22.18" height="1.00" fill="#ff2e97"/><rect x="107.35" y="40.00" width="25.30" height="1.00" fill="#ff2e97"/><rect x="106.04" y="41.00" width="27.93" height="1.00" fill="#ff2e97"/><rect x="104.90" y="42.00" width="30.20" height="1.00" fill="#ff2e97"/><rect x="103.91" y="43.00" width="32.19" height="1.00" fill="#ff2e97"/><rect x="103.03" y="44.00" width="33.94" height="1.00" fill="#ff5f6d"/><rect x="102.25" y="45.00" width="35.50" height="1.00" fill="#ff5f6d"/><rect x="100.95" y="47.00" width="38.11" height="1.00" fill="#ff5f6d"/><rect x="100.40" y="48.00" width="39.19" height="1.00" fill="#ff5f6d"/><rect x="99.93" y="49.00" width="40.15" height="1.00" fill="#ff9f45"/><rect x="99.14" y="51.00" width="41.71" height="1.00" fill="#ff9f45"/><rect x="98.83" y="52.00" width="42.33" height="1.00" fill="#ff9f45"/><rect x="98.58" y="53.00" width="42.85" height="1.00" fill="#ff9f45"/><rect x="98.21" y="55.00" width="43.59" height="1.00" fill="#ffd23f"/><rect x="98.09" y="56.00" width="43.82" height="1.00" fill="#ffd23f"/><rect x="98.02" y="57.00" width="43.95" height="1.00" fill="#ffd23f"/><rect x="0.00" y="58.00" width="240.00" height="1.00" fill="#00fff9"/><line x1="120" y1="58" x2="-40" y2="94" stroke="#00fff9" stroke-width="0.5" stroke-opacity="0.7"/><line x1="120" y1="58" x2="-20" y2="94" stroke="#00fff9" stroke-width="0.5" stroke-opacity="0.7"/><line x1="120" y1="58" x2="0" y2="94" stroke="#00fff9" stroke-width="0.5" stroke-opacity="0.7"/><line x1="120" y1="58" x2="20" y2="94" stroke="#00fff9" stroke-width="0.5" stroke-opacity="0.7"/><line x1="120" y1="58" x2="40" y2="94" stroke="#00fff9" stroke-width="0.5" stroke-opacity="0.7"/><line x1="120" y1="58" x2="60" y2="94" stroke="#00fff9" stroke-width="0.5" stroke-opacity="0.7"/><line x1="120" y1="58" x2="80" y2="94" stroke="#00fff9" stroke-width="0.5" stroke-opacity="0.7"/><line x1="120" y1="58" x2="100" y2="94" stroke="#00fff9" stroke-width="0.5" stroke-opacity="0.7"/><line x1="120" y1="58" x2="120" y2="94" stroke="#00fff9" stroke-width="0.5" stroke-opacity="0.7"/><line x1="120" y1="58" x2="140" y2="94" stroke="#00fff9" stroke-width="0.5" stroke-opacity="0.7"/><line x1="120" y1="58" x2="160" y2="94" stroke="#00fff9" stroke-width="0.5" stroke-opacity="0.7"/><line x1="120" y1="58" x2="180" y2="94" stroke="#00fff9" stroke-width="0.5" stroke-opacity="0.7"/><line x1="120" y1="58" x2="200" y2="94" stroke="#00fff9" stroke-width="0.5" stroke-opacity="0.7"/><line x1="120" y1="58" x2="220" y2="94" stroke="#00fff9" stroke-width="0.5" stroke-opacity="0.7"/><line x1="120" y1="58" x2="240" y2="94" stroke="#00fff9" stroke-width="0.5" stroke-opacity="0.7"/><line x1="120" y1="58" x2="260" y2="94" stroke="#00fff9" stroke-width="0.5" stroke-opacity="0.7"/><line x1="120" y1="58" x2="280" y2="94" stroke="#00fff9" stroke-width="0.5" stroke-opacity="0.7"/><line x1="0" y1="60.00" x2="240" y2="60.00" stroke="#7b2ff7" stroke-width="0.5" stroke-opacity="0.65"/><line x1="0" y1="62.20" x2="240" y2="62.20" stroke="#7b2ff7" stroke-width="0.5" stroke-opacity="0.65"/><line x1="0" y1="65.39" x2="240" y2="65.39" stroke="#7b2ff7" stroke-width="0.5" stroke-opacity="0.65"/><line x1="0" y1="70.02" x2="240" y2="70.02" stroke="#7b2ff7" stroke-width="0.5" stroke-opacity="0.65"/><line x1="0" y1="76.72" x2="240" y2="76.72" stroke="#7b2ff7" stroke-width="0.5" stroke-opacity="0.65"/><line x1="0" y1="86.45" x2="240" y2="86.45" stroke="#7b2ff7" stroke-width="0.5" stroke-opacity="0.65"/>
</svg>