<svg xmlns="http://www.w3.org/2000/svg" viewBox="0 0 260 132" width="1040" height="528" shape-rendering="crispEdges" role="img" aria-label="root@blackbox terminal — Ahmet Erdogan security banner"><rect x="0.00" y="0.00" width="260.00" height="132.00" fill="#0a0e12" rx="4"/><rect x="1" y="1" width="258" height="130" fill="none" stroke="#00ff9f" stroke-opacity="0.55" stroke-width="1" rx="4"/><rect x="1.00" y="1.00" width="258.00" height="13.00" fill="#111820"/><circle cx="10" cy="7.5" r="2.4" fill="#ff5f56"/><circle cx="18" cy="7.5" r="2.4" fill="#ffbd2e"/><circle cx="26" cy="7.5" r="2.4" fill="#27c93f"/><text x="130.00" y="9.60" font-family="ui-monospace,'Courier New',monospace" font-size="5.2" fill="#3fb07a" text-anchor="middle" opacity="0.85">root@blackbox: ~ — secure shell</text><rect x="74.35" y="22.60" width="1.50" height="1.50" fill="#1a7f4f"/><rect x="75.85" y="22.60" width="1.50" height="1.50" fill="#1a7f4f"/><rect x="77.35" y="22.60" width="1.50" height="1.50" fill="#1a7f4f"/><rect x="72.85" y="24.10" width="1.50" height="1.50" fill="#1a7f4f"/><rect x="78.85" y="24.10" width="1.50" height="1.50" fill="#1a7f4f"/><rect x="72.85" y="25.60" width="1.50" height="1.50" fill="#1a7f4f"/><rect x="78.85" y="25.60" width="1.50" height="1.50" fill="#1a7f4f"/><rect x="72.85" y="27.10" width="1.50" height="1.50" fill="#1a7f4f"/><rect x="74.35" y="27.10" width="1.50" height="1.50" fill="#1a7f4f"/><rect x="75.85" y="27.10" width="1.50" height="1.50" fill="#1a7f4f"/><rect x="77.35" y="27.10" width="1.50" height="1.50" fill="#1a7f4f"/><rect x="78.85" y="27.10" width="1.50" height="1.50" fill="#1a7f4f"/><rect x="72.85" y="28.60" width="1.50" height="1.50" fill="#1a7f4f"/><rect x="78.85" y="28.60" width="1.50" height="1.50" fill="#1a7f4f"/><rect x="72.85" y="30.10" width="1.50" height="1.50" fill="#1a7f4f"/><rect x="78.85" y="30.10" width="1.50" height="1.50" fill="#1a7f4f"/><rect x="72.85" y="31.60" width="1.50" height="1.50" fill="#1a7f4f"/><rect x="78.85" y="31.60" width="1.50" height="1.50" fill="#1a7f4f"/><rect x="81.85" y="22.60" width="1.50" height="1.50" fill="#1a7f4f"/><rect x="87.85" y="22.60" width="1.50" height="1.50" fill="#1a7f4f"/><rect x="81.85" y="24.10" width="1.50" height="1.50" fill="#1a7f4f"/><rect x="87.85" y="24.10" width="1.50" height="1.50" fill="#1a7f4f"/><rect x="81.85" y="25.60" width="1.50" height="1.50" fill="#1a7f4f"/><rect x="87.85" y="25.60" width="1.50" height="1.50" fill="#1a7f4f"/><rect x="81.85" y="27.10" width="1.50" height="1.50" fill="#1a7f4f"/><rect x="83.35" y="27.10" width="1.50" height="1.50" fill="#1a7f4f"/><rect x="84.85" y="27.10" width="1.50" height="1.50" fill="#1a7f4f"/><rect x="86.35" y="27.10" width="1.50" height="1.50" fill="#1a7f4f"/><rect x="87.85" y="27.10" width="1.50" height="1.50" fill="#1a7f4f"/><rect x="81.85" y="28.60" width="1.50" height="1.50" fill="#1a7f4f"/><rect x="87.85" y="28.60" width="1.50" height="1.50" fill="#1a7f4f"/><rect x="81.85" y="30.10" width="1.50" height="1.50" fill="#1a7f4f"/><rect x="87.85" y="30.10" width="1.50" height="1.50" fill="#1a7f4f"/><rect x="81.85" y="31.60" width="1.50" height="1.50" fill="#1a7f4f"/><rect x="87.85" y="31.60" width="1.50" height="1.50" fill="#1a7f4f"/><rect x="90.85" y="22.60" width="1.50" height="1.50" fill="#1a7f4f"/><rect x="96.85" y="22.60" width="1.50" height="1.50" fill="#1a7f4f"/><rect x="90.85" y="24.10" width="1.50" height="1.50" fill="#1a7f4f"/><rect x="92.35" y="24.10" width="1.50" height="1.50" fill="#1a7f4f"/><rect x="95.35" y="24.10" width="1.50" height="1.50" fill="#1a7f4f"/><rect x="96.85" y="24.10" width="1.50" height="1.50" fill="#1a7f4f"/><rect x="90.85" y="25.60" width="1.50" height="1.50" fill="#1a7f4f"/><rect x="93.85" y="25.60" width="1.50" height="1.50" fill="#1a7f4f"/><rect x="96.85" y="25.60" width="1.50" height="1.50" fill="#1a7f4f"/><rect x="90.85" y="27.10" width="1.50" height="1.50" fill="#1a7f4f"/><rect x="93.85" y="27.10" width="1.50" height="1.50" fill="#1a7f4f"/><rect x="96.85" y="27.10" width="1.50" height="1.50" fill="#1a7f4f"/><rect x="90.85" y="28.60" width="1.50" height="1.50" fill="#1a7f4f"/><rect x="96.85" y="28.60" width="1.50" height="1.50" fill="#1a7f4f"/><rect x="90.85" y="30.10" width="1.50" height="1.50" fill="#1a7f4f"/><rect x="96.85" y="30.10" width="1.50" height="1.50" fill="#1a7f4f"/><rect x="90.85" y="31.60" width="1.50" height="1.50" fill="#1a7f4f"/><rect x="96.85" y="31.60" width="1.50" height="1.50" fill="#1a7f4f"/><rect x="99.85" y="22.60" width="1.50" height="1.50" fill="#1a7f4f"/><rect x="101.35" y="22.60" width="1.50" height="1.50" fill="#1a7f4f"/><rect x="102.85" y="22.60" width="1.50" height="1.50" fill="#1a7f4f"/><rect x="104.35" y="22.60" width="1.50" height="1.50" fill="#1a7f4f"/><rect x="105.85" y="22.60" width="1.50" height="1.50" fill="#1a7f4f"/><rect x="99.85" y="24.10" width="1.50" height="1.50" fill="#1a7f4f"/><rect x="99.85" y="25.60" width="1.50" height="1.50" fill="#1a7f4f"/><rect x="99.85" y="27.10" width="1.50" height="1.50" fill="#1a7f4f"/><rect x="101.35" y="27.10" width="1.50" height="1.50" fill="#1a7f4f"/><rect x="102.85" y="27.10" width="1.50" height="1.50" fill="#1a7f4f"/><rect x="104.35" y="27.10" width="1.50" height="1.50" fill="#1a7f4f"/><rect x="99.85" y="28.60" width="1.50" height="1.50" fill="#1a7f4f"/><rect x="99.85" y="30.10" width="1.50" height="1.50" fill="#1a7f4f"/><rect x="99.85" y="31.60" width="1.50" height="1.50" fill="#1a7f4f"/><rect x="101.35" y="31.60" width="1.50" height="1.50" fill="#1a7f4f"/><rect x="102.85" y="31.60" width="1.50" height="1.50" fill="#1a7f4f"/><rect x="104.35" y="31.60" width="1.50" height="1.50" fill="#1a7f4f"/><rect x="105.85" y="31.60" width="1.50" height="1.50" fill="#1a7f4f"/><rect x="108.85" y="22.60" width="1.50" height="1.50" fill="#1a7f4f"/><rect x="110.35" y="22.60" width="1.50" height="1.50" fill="#1a7f4f"/><rect x="111.85" y="22.60" width="1.50" height="1.50" fill="#1a7f4f"/><rect x="113.35" y="22.60" width="1.50" height="1.50" fill="#1a7f4f"/><rect x="114.85" y="22.60" width="1.50" height="1.50" fill="#1a7f4f"/><rect x="111.85" y="24.10" width="1.50" height="1.50" fill="#1a7f4f"/><rect x="111.85" y="25.60" width="1.50" height="1.50" fill="#1a7f4f"/><rect x="111.85" y="27.10" width="1.50" height="1.50" fill="#1a7f4f"/><rect x="111.85" y="28.60" width="1.50" height="1.50" fill="#1a7f4f"/><rect x="111.85" y="30.10" width="1.50" height="1.50" fill="#1a7f4f"/><rect x="111.85" y="31.60" width="1.50" height="1.50" fill="#1a7f4f"/><rect x="126.85" y="22.60" width="1.50" height="1.50" fill="#1a7f4f"/><rect x="128.35" y="22.60" width="1.50" height="1.50" fill="#1a7f4f"/><rect x="129.85" y="22.60" width="1.50" height="1.50" fill="#1a7f4f"/><rect x="131.35" y="22.60" width="1.50" height="1.50" fill="#1a7f4f"/><rect x="132.85" y="22.60" width="1.50" height="1.50" fill="#1a7f4f"/><rect x="126.85" y="24.10" width="1.50" height="1.50" fill="#1a7f4f"/><rect x="126.85" y="25.60" width="1.50" height="1.50" fill="#1a7f4f"/><rect x="126.85" y="27.10" width="1.50" height="1.50" fill="#1a7f4f"/><rect x="128.35" y="27.10" width="1.50" height="1.50" fill="#1a7f4f"/><rect x="129.85" y="27.10" width="1.50" height="1.50" fill="#1a7f4f"/><rect x="131.35" y="27.10" width="1.50" height="1.50" fill="#1a7f4f"/><rect x="126.85" y="28.60" width="1.50" height="1.50" fill="#1a7f4f"/><rect x="126.85" y="30.10" width="1.50" height="1.50" fill="#1a7f4f"/><rect x="126.85" y="31.60" width="1.50" height="1.50" fill="#1a7f4f"/><rect x="128.35" y="31.60" width="1.50" height="1.50" fill="#1a7f4f"/><rect x="129.85" y="31.60" width="1.50" height="1.50" fill="#1a7f4f"/><rect x="131.35" y="31.60" width="1.50" height="1.50" fill="#1a7f4f"/><rect x="132.85" y="31.60" width="1.50" height="1.50" fill="#1a7f4f"/><rect x="135.85" y="22.60" width="1.50" height="1.50" fill="#1a7f4f"/><rect x="137.35" y="22.60" width="1.50" height="1.50" fill="#1a7f4f"/><rect x="138.85" y="22.60" width="1.50" height="1.50" fill="#1a7f4f"/><rect x="140.35" y="22.60" width="1.50" height="1.50" fill="#1a7f4f"/><rect x="135.85" y="24.10" width="1.50" height="1.50" fill="#1a7f4f"/><rect x="141.85" y="24.10" width="1.50" height="1.50" fill="#1a7f4f"/><rect x="135.85" y="25.60" width="1.50" height="1.50" fill="#1a7f4f"/><rect x="141.85" y="25.60" width="1.50" height="1.50" fill="#1a7f4f"/><rect x="135.85" y="27.10" width="1.50" height="1.50" fill="#1a7f4f"/><rect x="137.35" y="27.10" width="1.50" height="1.50" fill="#1a7f4f"/><rect x="138.85" y="27.10" width="1.50" height="1.50" fill="#1a7f4f"/><rect x="140.35" y="27.10" width="1.50" height="1.50" fill="#1a7f4f"/><rect x="135.85" y="28.60" width="1.50" height="1.50" fill="#1a7f4f"/><rect x="138.85" y="28.60" width="1.50" height="1.50" fill="#1a7f4f"/><rect x="135.85" y="30.10" width="1.50" height="1.50" fill="#1a7f4f"/><rect x="140.35" y="30.10" width="1.50" height="1.50" fill="#1a7f4f"/><rect x="135.85" y="31.60" width="1.50" height="1.50" fill="#1a7f4f"/><rect x="141.85" y="31.60" width="1.50" height="1.50" fill="#1a7f4f"/><rect x="144.85" y="22.60" width="1.50" height="1.50" fill="#1a7f4f"/><rect x="146.35" y="22.60" width="1.50" height="1.50" fill="#1a7f4f"/><rect x="147.85" y="22.60" width="1.50" height="1.50" fill="#1a7f4f"/><rect x="149.35" y="22.60" width="1.50" height="1.50" fill="#1a7f4f"/><rect x="144.85" y="24.10" width="1.50" height="1.50" fill="#1a7f4f"/><rect x="150.85" y="24.10" width="1.50" height="1.50" fill="#1a7f4f"/><rect x="144.85" y="25.60" width="1.50" height="1.50" fill="#1a7f4f"/><rect x="150.85" y="25.60" width="1.50" height="1.50" fill="#1a7f4f"/><rect x="144.85" y="27.10" width="1.50" height="1.50" fill="#1a7f4f"/><rect x="150.85" y="27.10" width="1.50" height="1.50" fill="#1a7f4f"/><rect x="144.85" y="28.60" width="1.50" height="1.50" fill="#1a7f4f"/><rect x="150.85" y="28.60" width="1.50" height="1.50" fill="#1a7f4f"/><rect x="144.85" y="30.10" width="1.50" height="1.50" fill="#1a7f4f"/><rect x="150.85" y="30.10" width="1.50" height="1.50" fill="#1a7f4f"/><rect x="144.85" y="31.60" width="1.50" height="1.50" fill="#1a7f4f"/><rect x="146.35" y="31.60" width="1.50" height="1.50" fill="#1a7f4f"/><rect x="147.85" y="31.60" width="1.50" height="1.50" fill="#1a7f4f"/><rect x="149.35" y="31.60" width="1.50" height="1.50" fill="#1a7f4f"/><rect x="155.35" y="22.60" width="1.50" height="1.50" fill="#1a7f4f"/><rect x="156.85" y="22.60" width="1.50" height="1.50" fill="#1a7f4f"/><rect x="158.35" y="22.60" width="1.50" height="1.50" fill="#1a7f4f"/><rect x="153.85" y="24.10" width="1.50" height="1.50" fill="#1a7f4f"/><rect x="159.85" y="24.10" width="1.50" height="1.50" fill="#1a7f4f"/><rect x="153.85" y="25.60" width="1.50" height="1.50" fill="#1a7f4f"/><rect x="159.85" y="25.60" width="1.50" height="1.50" fill="#1a7f4f"/><rect x="153.85" y="27.10" width="1.50" height="1.50" fill="#1a7f4f"/><rect x="159.85" y="27.10" width="1.50" height="1.50" fill="#1a7f4f"/><rect x="153.85" y="28.60" width="1.50" height="1.50" fill="#1a7f4f"/><rect x="159.85" y="28.60" width="1.50" height="1.50" fill="#1a7f4f"/><rect x="153.85" y="30.10" width="1.50" height="1.50" fill="#1a7f4f"/><rect x="159.85" y="30.10" width="1.50" height="1.50" fill="#1a7f4f"/><rect x="155.35" y="31.60" width="1.50" height="1.50" fill="#1a7f4f"/><rect x="156.85" y="31.60" width="1.50" height="1.50" fill="#1a7f4f"/><rect x="158.35" y="31.60" width="1.50" height="1.50" fill="#1a7f4f"/><rect x="164.35" y="22.60" width="1.50" height="1.50" fill="#1a7f4f"/><rect x="165.85" y="22.60" width="1.50" height="1.50" fill="#1a7f4f"/><rect x="167.35" y="22.60" width="1.50" height="1.50" fill="#1a7f4f"/><rect x="162.85" y="24.10" width="1.50" height="1.50" fill="#1a7f4f"/><rect x="168.85" y="24.10" width="1.50" height="1.50" fill="#1a7f4f"/><rect x="162.85" y="25.60" width="1.50" height="1.50" fill="#1a7f4f"/><rect x="162.85" y="27.10" width="1.50" height="1.50" fill="#1a7f4f"/><rect x="165.85" y="27.10" width="1.50" height="1.50" fill="#1a7f4f"/><rect x="167.35" y="27.10" width="1.50" height="1.50" fill="#1a7f4f"/><rect x="168.85" y="27.10" width="1.50" height="1.50" fill="#1a7f4f"/><rect x="162.85" y="28.60" width="1.50" height="1.50" fill="#1a7f4f"/><rect x="168.85" y="28.60" width="1.50" height="1.50" fill="#1a7f4f"/><rect x="162.85" y="30.10" width="1.50" height="1.50" fill="#1a7f4f"/><rect x="168.85" y="30.10" width="1.50" height="1.50" fill="#1a7f4f"/><rect x="164.35" y="31.60" width="1.50" height="1.50" fill="#1a7f4f"/><rect x="165.85" y="31.60" width="1.50" height="1.50" fill="#1a7f4f"/><rect x="167.35" y="31.60" width="1.50" height="1.50" fill="#1a7f4f"/><rect x="173.35" y="22.60" width="1.50" height="1.50" fill="#1a7f4f"/><rect x="174.85" y="22.60" width="1.50" height="1.50" fill="#1a7f4f"/><rect x="176.35" y="22.60" width="1.50" height="1.50" fill="#1a7f4f"/><rect x="171.85" y="24.10" width="1.50" height="1.50" fill="#1a7f4f"/><rect x="177.85" y="24.10" width="1.50" height="1.50" fill="#1a7f4f"/><rect x="171.85" y="25.60" width="1.50" height="1.50" fill="#1a7f4f"/><rect x="177.85" y="25.60" width="1.50" height="1.50" fill="#1a7f4f"/><rect x="171.85" y="27.10" width="1.50" height="1.50" fill="#1a7f4f"/><rect x="173.35" y="27.10" width="1.50" height="1.50" fill="#1a7f4f"/><rect x="174.85" y="27.10" width="1.50" height="1.50" fill="#1a7f4f"/><rect x="176.35" y="27.10" width="1.50" height="1.50" fill="#1a7f4f"/><rect x="177.85" y="27.10" width="1.50" height="1.50" fill="#1a7f4f"/><rect x="171.85" y="28.60" width="1.50" height="1.50" fill="#1a7f4f"/><rect x="177.85" y="28.60" width="1.50" height="1.50" fill="#1a7f4f"/><rect x="171.85" y="30.10" width="1.50" height="1.50" fill="#1a7f4f"/><rect x="177.85" y="30.10" width="1.50" height="1.50" fill="#1a7f4f"/><rect x="171.85" y="31.60" width="1.50" height="1.50" fill="#1a7f4f"/><rect x="177.85" y="31.60" width="1.50" height="1.50" fill="#1a7f4f"/><rect x="180.85" y="22.60" width="1.50" height="1.50" fill="#1a7f4f"/><rect x="186.85" y="22.60" width="1.50" height="1.50" fill="#1a7f4f"/><rect x="180.85" y="24.10" width="1.50" height="1.50" fill="#1a7f4f"/><rect x="182.35" y="24.10" width="1.50" height="1.50" fill="#1a7f4f"/><rect x="186.85" y="24.10" width="1.50" height="1.50" fill="#1a7f4f"/><rect x="180.85" y="25.60" width="1.50" height="1.50" fill="#1a7f4f"/><rect x="183.85" y="25.60" width="1.50" height="1.50" fill="#1a7f4f"/><rect x="186.85" y="25.60" width="1.50" height="1.50" fill="#1a7f4f"/><rect x="180.85" y="27.10" width="1.50" height="1.50" fill="#1a7f4f"/><rect x="185.35" y="27.10" width="1.50" height="1.50" fill="#1a7f4f"/><rect x="186.85" y="27.10" width="1.50" height="1.50" fill="#1a7f4f"/><rect x="180.85" y="28.60" width="1.50" height="1.50" fill="#1a7f4f"/><rect x="186.85" y="28.60" width="1.50" height="1.50" fill="#1a7f4f"/><rect x="180.85" y="30.10" width="1.50" height="1.50" fill="#1a7f4f"/><rect x="186.85" y="30.10" width="1.50" height="1.50" fill="#1a7f4f"/><rect x="180.85" y="31.60" width="1.50" height="1.50" fill="#1a7f4f"/><rect x="186.85" y="31.60" width="1.50" height="1.50" fill="#1a7f4f"/><rect x="73.75" y="22.00" width="1.50" height="1.50" fill="#00ff9f"/><rect x="75.25" y="22.00" width="1.50" height="1.50" fill="#00ff9f"/><rect x="76.75" y="22.00" width="1.50" height="1.50" fill="#00ff9f"/><rect x="72.25" y="23.50" width="1.50" height="1.50" fill="#00ff9f"/><rect x="78.25" y="23.50" width="1.50" height="1.50" fill="#00ff9f"/><rect x="72.25" y="25.00" width="1.50" height="1.50" fill="#00ff9f"/><rect x="78.25" y="25.00" width="1.50" height="1.50" fill="#00ff9f"/><rect x="72.25" y="26.50" width="1.50" height="1.50" fill="#00ff9f"/><rect x="73.75" y="26.50" width="1.50" height="1.50" fill="#00ff9f"/><rect x="75.25" y="26.50" width="1.50" height="1.50" fill="#00ff9f"/><rect x="76.75" y="26.50" width="1.50" height="1.50" fill="#00ff9f"/><rect x="78.25" y="26.50" width="1.50" height="1.50" fill="#00ff9f"/><rect x="72.25" y="28.00" width="1.50" height="1.50" fill="#00ff9f"/><rect x="78.25" y="28.00" width="1.50" height="1.50" fill="#00ff9f"/><rect x="72.25" y="29.50" width="1.50" height="1.50" fill="#00ff9f"/><rect x="78.25" y="29.50" width="1.50" height="1.50" fill="#00ff9f"/><rect x="72.25" y="31.00" width="1.50" height="1.50" fill="#00ff9f"/><rect x="78.25" y="31.00" width="1.50" height="1.50" fill="#00ff9f"/><rect x="81.25" y="22.00" width="1.50" height="1.50" fill="#00ff9f"/><rect x="87.25" y="22.00" width="1.50" height="1.50" fill="#00ff9f"/><rect x="81.25" y="23.50" width="1.50" height="1.50" fill="#00ff9f"/><rect x="87.25" y="23.50" width="1.50" height="1.50" fill="#00ff9f"/><rect x="81.25" y="25.00" width="1.50" height="1.50" fill="#00ff9f"/><rect x="87.25" y="25.00" width="1.50" height="1.50" fill="#00ff9f"/><rect x="81.25" y="26.50" width="1.50" height="1.50" fill="#00ff9f"/><rect x="82.75" y="26.50" width="1.50" height="1.50" fill="#00ff9f"/><rect x="84.25" y="26.50" width="1.50" height="1.50" fill="#00ff9f"/><rect x="85.75" y="26.50" width="1.50" height="1.50" fill="#00ff9f"/><rect x="87.25" y="26.50" width="1.50" height="1.50" fill="#00ff9f"/><rect x="81.25" y="28.00" width="1.50" height="1.50" fill="#00ff9f"/><rect x="87.25" y="28.00" width="1.50" height="1.50" fill="#00ff9f"/><rect x="81.25" y="29.50" width="1.50" height="1.50" fill="#00ff9f"/><rect x="87.25" y="29.50" width="1.50" height="1.50" fill="#00ff9f"/><rect x="81.25" y="31.00" width="1.50" height="1.50" fill="#00ff9f"/><rect x="87.25" y="31.00" width="1.50" height="1.50" fill="#00ff9f"/><rect x="90.25" y="22.00" width="1.50" height="1.50" fill="#00ff9f"/><rect x="96.25" y="22.00" width="1.50" height="1.50" fill="#00ff9f"/><rect x="90.25" y="23.50" width="1.50" height="1.50" fill="#00ff9f"/><rect x="91.75" y="23.50" width="1.50" height="1.50" fill="#00ff9f"/><rect x="94.75" y="23.50" width="1.50" height="1.50" fill="#00ff9f"/><rect x="96.25" y="23.50" width="1.50" height="1.50" fill="#00ff9f"/><rect x="90.25" y="25.00" width="1.50" height="1.50" fill="#00ff9f"/><rect x="93.25" y="25.00" width="1.50" height="1.50" fill="#00ff9f"/><rect x="96.25" y="25.00" width="1.50" height="1.50" fill="#00ff9f"/><rect x="90.25" y="26.50" width="1.50" height="1.50" fill="#00ff9f"/><rect x="93.25" y="26.50" width="1.50" height="1.50" fill="#00ff9f"/><rect x="96.25" y="26.50" width="1.50" height="1.50" fill="#00ff9f"/><rect x="90.25" y="28.00" width="1.50" height="1.50" fill="#00ff9f"/><rect x="96.25" y="28.00" width="1.50" height="1.50" fill="#00ff9f"/><rect x="90.25" y="29.50" width="1.50" height="1.50" fill="#00ff9f"/><rect x="96.25" y="29.50" width="1.50" height="1.50" fill="#00ff9f"/><rect x="90.25" y="31.00" width="1.50" height="1.50" fill="#00ff9f"/><rect x="96.25" y="31.00" width="1.50" height="1.50" fill="#00ff9f"/><rect x="99.25" y="22.00" width="1.50" height="1.50" fill="#00ff9f"/><rect x="100.75" y="22.00" width="1.50" height="1.50" fill="#00ff9f"/><rect x="102.25" y="22.00" width="1.50" height="1.50" fill="#00ff9f"/><rect x="103.75" y="22.00" width="1.50" height="1.50" fill="#00ff9f"/><rect x="105.25" y="22.00" width="1.50" height="1.50" fill="#00ff9f"/><rect x="99.25" y="23.50" width="1.50" height="1.50" fill="#00ff9f"/><rect x="99.25" y="25.00" width="1.50" height="1.50" fill="#00ff9f"/><rect x="99.25" y="26.50" width="1.50" height="1.50" fill="#00ff9f"/><rect x="100.75" y="26.50" width="1.50" height="1.50" fill="#00ff9f"/><rect x="102.25" y="26.50" width="1.50" height="1.50" fill="#00ff9f"/><rect x="103.75" y="26.50" width="1.50" height="1.50" fill="#00ff9f"/><rect x="99.25" y="28.00" width="1.50" height="1.50" fill="#00ff9f"/><rect x="99.25" y="29.50" width="1.50" height="1.50" fill="#00ff9f"/><rect x="99.25" y="31.00" width="1.50" height="1.50" fill="#00ff9f"/><rect x="100.75" y="31.00" width="1.50" height="1.50" fill="#00ff9f"/><rect x="102.25" y="31.00" width="1.50" height="1.50" fill="#00ff9f"/><rect x="103.75" y="31.00" width="1.50" height="1.50" fill="#00ff9f"/><rect x="105.25" y="31.00" width="1.50" height="1.50" fill="#00ff9f"/><rect x="108.25" y="22.00" width="1.50" height="1.50" fill="#00ff9f"/><rect x="109.75" y="22.00" width="1.50" height="1.50" fill="#00ff9f"/><rect x="111.25" y="22.00" width="1.50" height="1.50" fill="#00ff9f"/><rect x="112.75" y="22.00" width="1.50" height="1.50" fill="#00ff9f"/><rect x="114.25" y="22.00" width="1.50" height="1.50" fill="#00ff9f"/><rect x="111.25" y="23.50" width="1.50" height="1.50" fill="#00ff9f"/><rect x="111.25" y="25.00" width="1.50" height="1.50" fill="#00ff9f"/><rect x="111.25" y="26.50" width="1.50" height="1.50" fill="#00ff9f"/><rect x="111.25" y="28.00" width="1.50" height="1.50" fill="#00ff9f"/><rect x="111.25" y="29.50" width="1.50" height="1.50" fill="#00ff9f"/><rect x="111.25" y="31.00" width="1.50" height="1.50" fill="#00ff9f"/><rect x="126.25" y="22.00" width="1.50" height="1.50" fill="#00ff9f"/><rect x="127.75" y="22.00" width="1.50" height="1.50" fill="#00ff9f"/><rect x="129.25" y="22.00" width="1.50" height="1.50" fill="#00ff9f"/><rect x="130.75" y="22.00" width="1.50" height="1.50" fill="#00ff9f"/><rect x="132.25" y="22.00" width="1.50" height="1.50" fill="#00ff9f"/><rect x="126.25" y="23.50" width="1.50" height="1.50" fill="#00ff9f"/><rect x="126.25" y="25.00" width="1.50" height="1.50" fill="#00ff9f"/><rect x="126.25" y="26.50" width="1.50" height="1.50" fill="#00ff9f"/><rect x="127.75" y="26.50" width="1.50" height="1.50" fill="#00ff9f"/><rect x="129.25" y="26.50" width="1.50" height="1.50" fill="#00ff9f"/><rect x="130.75" y="26.50" width="1.50" height="1.50" fill="#00ff9f"/><rect x="126.25" y="28.00" width="1.50" height="1.50" fill="#00ff9f"/><rect x="126.25" y="29.50" width="1.50" height="1.50" fill="#00ff9f"/><rect x="126.25" y="31.00" width="1.50" height="1.50" fill="#00ff9f"/><rect x="127.75" y="31.00" width="1.50" height="1.50" fill="#00ff9f"/><rect x="129.25" y="31.00" width="1.50" height="1.50" fill="#00ff9f"/><rect x="130.75" y="31.00" width="1.50" height="1.50" fill="#00ff9f"/><rect x="132.25" y="31.00" width="1.50" height="1.50" fill="#00ff9f"/><rect x="135.25" y="22.00" width="1.50" height="1.50" fill="#00ff9f"/><rect x="136.75" y="22.00" width="1.50" height="1.50" fill="#00ff9f"/><rect x="138.25" y="22.00" width="1.50" height="1.50" fill="#00ff9f"/><rect x="139.75" y="22.00" width="1.50" height="1.50" fill="#00ff9f"/><rect x="135.25" y="23.50" width="1.50" height="1.50" fill="#00ff9f"/><rect x="141.25" y="23.50" width="1.50" height="1.50" fill="#00ff9f"/><rect x="135.25" y="25.00" width="1.50" height="1.50" fill="#00ff9f"/><rect x="141.25" y="25.00" width="1.50" height="1.50" fill="#00ff9f"/><rect x="135.25" y="26.50" width="1.50" height="1.50" fill="#00ff9f"/><rect x="136.75" y="26.50" width="1.50" height="1.50" fill="#00ff9f"/><rect x="138.25" y="26.50" width="1.50" height="1.50" fill="#00ff9f"/><rect x="139.75" y="26.50" width="1.50" height="1.50" fill="#00ff9f"/><rect x="135.25" y="28.00" width="1.50" height="1.50" fill="#00ff9f"/><rect x="138.25" y="28.00" width="1.50" height="1.50" fill="#00ff9f"/><rect x="135.25" y="29.50" width="1.50" height="1.50" fill="#00ff9f"/><rect x="139.75" y="29.50" width="1.50" height="1.50" fill="#00ff9f"/><rect x="135.25" y="31.00" width="1.50" height="1.50" fill="#00ff9f"/><rect x="141.25" y="31.00" width="1.50" height="1.50" fill="#00ff9f"/><rect x="144.25" y="22.00" width="1.50" height="1.50" fill="#00ff9f"/><rect x="145.75" y="22.00" width="1.50" height="1.50" fill="#00ff9f"/><rect x="147.25" y="22.00" width="1.50" height="1.50" fill="#00ff9f"/><rect x="148.75" y="22.00" width="1.50" height="1.50" fill="#00ff9f"/><rect x="144.25" y="23.50" width="1.50" height="1.50" fill="#00ff9f"/><rect x="150.25" y="23.50" width="1.50" height="1.50" fill="#00ff9f"/><rect x="144.25" y="25.00" width="1.50" height="1.50" fill="#00ff9f"/><rect x="150.25" y="25.00" width="1.50" height="1.50" fill="#00ff9f"/><rect x="144.25" y="26.50" width="1.50" height="1.50" fill="#00ff9f"/><rect x="150.25" y="26.50" width="1.50" height="1.50" fill="#00ff9f"/><rect x="144.25" y="28.00" width="1.50" height="1.50" fill="#00ff9f"/><rect x="150.25" y="28.00" width="1.50" height="1.50" fill="#00ff9f"/><rect x="144.25" y="29.50" width="1.50" height="1.50" fill="#00ff9f"/><rect x="150.25" y="29.50" width="1.50" height="1.50" fill="#00ff9f"/><rect x="144.25" y="31.00" width="1.50" height="1.50" fill="#00ff9f"/><rect x="145.75" y="31.00" width="1.50" height="1.50" fill="#00ff9f"/><rect x="147.25" y="31.00" width="1.50" height="1.50" fill="#00ff9f"/><rect x="148.75" y="31.00" width="1.50" height="1.50" fill="#00ff9f"/><rect x="154.75" y="22.00" width="1.50" height="1.50" fill="#00ff9f"/><rect x="156.25" y="22.00" width="1.50" height="1.50" fill="#00ff9f"/><rect x="157.75" y="22.00" width="1.50" height="1.50" fill="#00ff9f"/><rect x="153.25" y="23.50" width="1.50" height="1.50" fill="#00ff9f"/><rect x="159.25" y="23.50" width="1.50" height="1.50" fill="#00ff9f"/><rect x="153.25" y="25.00" width="1.50" height="1.50" fill="#00ff9f"/><rect x="159.25" y="25.00" width="1.50" height="1.50" fill="#00ff9f"/><rect x="153.25" y="26.50" width="1.50" height="1.50" fill="#00ff9f"/><rect x="159.25" y="26.50" width="1.50" height="1.50" fill="#00ff9f"/><rect x="153.25" y="28.00" width="1.50" height="1.50" fill="#00ff9f"/><rect x="159.25" y="28.00" width="1.50" height="1.50" fill="#00ff9f"/><rect x="153.25" y="29.50" width="1.50" height="1.50" fill="#00ff9f"/><rect x="159.25" y="29.50" width="1.50" height="1.50" fill="#00ff9f"/><rect x="154.75" y="31.00" width="1.50" height="1.50" fill="#00ff9f"/><rect x="156.25" y="31.00" width="1.50" height="1.50" fill="#00ff9f"/><rect x="157.75" y="31.00" width="1.50" height="1.50" fill="#00ff9f"/><rect x="163.75" y="22.00" width="1.50" height="1.50" fill="#00ff9f"/><rect x="165.25" y="22.00" width="1.50" height="1.50" fill="#00ff9f"/><rect x="166.75" y="22.00" width="1.50" height="1.50" fill="#00ff9f"/><rect x="162.25" y="23.50" width="1.50" height="1.50" fill="#00ff9f"/><rect x="168.25" y="23.50" width="1.50" height="1.50" fill="#00ff9f"/><rect x="162.25" y="25.00" width="1.50" height="1.50" fill="#00ff9f"/><rect x="162.25" y="26.50" width="1.50" height="1.50" fill="#00ff9f"/><rect x="165.25" y="26.50" width="1.50" height="1.50" fill="#00ff9f"/><rect x="166.75" y="26.50" width="1.50" height="1.50" fill="#00ff9f"/><rect x="168.25" y="26.50" width="1.50" height="1.50" fill="#00ff9f"/><rect x="162.25" y="28.00" width="1.50" height="1.50" fill="#00ff9f"/><rect x="168.25" y="28.00" width="1.50" height="1.50" fill="#00ff9f"/><rect x="162.25" y="29.50" width="1.50" height="1.50" fill="#00ff9f"/><rect x="168.25" y="29.50" width="1.50" height="1.50" fill="#00ff9f"/><rect x="163.75" y="31.00" width="1.50" height="1.50" fill="#00ff9f"/><rect x="165.25" y="31.00" width="1.50" height="1.50" fill="#00ff9f"/><rect x="166.75" y="31.00" width="1.50" height="1.50" fill="#00ff9f"/><rect x="172.75" y="22.00" width="1.50" height="1.50" fill="#00ff9f"/><rect x="174.25" y="22.00" width="1.50" height="1.50" fill="#00ff9f"/><rect x="175.75" y="22.00" width="1.50" height="1.50" fill="#00ff9f"/><rect x="171.25" y="23.50" width="1.50" height="1.50" fill="#00ff9f"/><rect x="177.25" y="23.50" width="1.50" height="1.50" fill="#00ff9f"/><rect x="171.25" y="25.00" width="1.50" height="1.50" fill="#00ff9f"/><rect x="177.25" y="25.00" width="1.50" height="1.50" fill="#00ff9f"/><rect x="171.25" y="26.50" width="1.50" height="1.50" fill="#00ff9f"/><rect x="172.75" y="26.50" width="1.50" height="1.50" fill="#00ff9f"/><rect x="174.25" y="26.50" width="1.50" height="1.50" fill="#00ff9f"/><rect x="175.75" y="26.50" width="1.50" height="1.50" fill="#00ff9f"/><rect x="177.25" y="26.50" width="1.50" height="1.50" fill="#00ff9f"/><rect x="171.25" y="28.00" width="1.50" height="1.50" fill="#00ff9f"/><rect x="177.25" y="28.00" width="1.50" height="1.50" fill="#00ff9f"/><rect x="171.25" y="29.50" width="1.50" height="1.50" fill="#00ff9f"/><rect x="177.25" y="29.50" width="1.50" height="1.50" fill="#00ff9f"/><rect x="171.25" y="31.00" width="1.50" height="1.50" fill="#00ff9f"/><rect x="177.25" y="31.00" width="1.50" height="1.50" fill="#00ff9f"/><rect x="180.25" y="22.00" width="1.50" height="1.50" fill="#00ff9f"/><rect x="186.25" y="22.00" width="1.50" height="1.50" fill="#00ff9f"/><rect x="180.25" y="23.50" width="1.50" height="1.50" fill="#00ff9f"/><rect x="181.75" y="23.50" width="1.50" height="1.50" fill="#00ff9f"/><rect x="186.25" y="23.50" width="1.50" height="1.50" fill="#00ff9f"/><rect x="180.25" y="25.00" width="1.50" height="1.50" fill="#00ff9f"/><rect x="183.25" y="25.00" width="1.50" height="1.50" fill="#00ff9f"/><rect x="186.25" y="25.00" width="1.50" height="1.50" fill="#00ff9f"/><rect x="180.25" y="26.50" width="1.50" height="1.50" fill="#00ff9f"/><rect x="184.75" y="26.50" width="1.50" height="1.50" fill="#00ff9f"/><rect x="186.25" y="26.50" width="1.50" height="1.50" fill="#00ff9f"/><rect x="180.25" y="28.00" width="1.50" height="1.50" fill="#00ff9f"/><rect x="186.25" y="28.00" width="1.50" height="1.50" fill="#00ff9f"/><rect x="180.25" y="29.50" width="1.50" height="1.50" fill="#00ff9f"/><rect x="186.25" y="29.50" width="1.50" height="1.50" fill="#00ff9f"/><rect x="180.25" y="31.00" width="1.50" height="1.50" fill="#00ff9f"/><rect x="186.25" y="31.00" width="1.50" height="1.50" fill="#00ff9f"/><rect x="230.80" y="20.00" width="1.40" height="1.40" fill="#3fb07a"/><rect x="232.20" y="20.00" width="1.40" height="1.40" fill="#3fb07a"/><rect x="233.60" y="20.00" width="1.40" height="1.40" fill="#3fb07a"/><rect x="235.00" y="20.00" width="1.40" height="1.40" fill="#3fb07a"/><rect x="236.40" y="20.00" width="1.40" height="1.40" fill="#3fb07a"/><rect x="229.40" y="21.40" width="1.40" height="1.40" fill="#3fb07a"/><rect x="237.80" y="21.40" width="1.40" height="1.40" fill="#3fb07a"/><rect x="229.40" y="22.80" width="1.40" height="1.40" fill="#3fb07a"/><rect x="237.80" y="22.80" width="1.40" height="1.40" fill="#3fb07a"/><rect x="228.00" y="24.20" width="1.40" height="1.40" fill="#3fb07a"/><rect x="229.40" y="24.20" width="1.40" height="1.40" fill="#3fb07a"/><rect x="230.80" y="24.20" width="1.40" height="1.40" fill="#3fb07a"/><rect x="232.20" y="24.20" width="1.40" height="1.40" fill="#3fb07a"/><rect x="233.60" y="24.20" width="1.40" height="1.40" fill="#3fb07a"/><rect x="235.00" y="24.20" width="1.40" height="1.40" fill="#3fb07a"/><rect x="236.40" y="24.20" width="1.40" height="1.40" fill="#3fb07a"/><rect x="237.80" y="24.20" width="1.40" height="1.40" fill="#3fb07a"/><rect x="239.20" y="24.20" width="1.40" height="1.40" fill="#3fb07a"/><rect x="228.00" y="25.60" width="1.40" height="1.40" fill="#3fb07a"/><rect x="229.40" y="25.60" width="1.40" height="1.40" fill="#3fb07a"/><rect x="230.80" y="25.60" width="1.40" height="1.40" fill="#3fb07a"/><rect x="232.20" y="25.60" width="1.40" height="1.40" fill="#3fb07a"/><rect x="233.60" y="25.60" width="1.40" height="1.40" fill="#3fb07a"/><rect x="235.00" y="25.60" width="1.40" height="1.40" fill="#3fb07a"/><rect x="236.40" y="25.60" width="1.40" height="1.40" fill="#3fb07a"/><rect x="237.80" y="25.60" width="1.40" height="1.40" fill="#3fb07a"/><rect x="239.20" y="25.60" width="1.40" height="1.40" fill="#3fb07a"/><rect x="228.00" y="27.00" width="1.40" height="1.40" fill="#3fb07a"/><rect x="229.40" y="27.00" width="1.40" height="1.40" fill="#3fb07a"/><rect x="230.80" y="27.00" width="1.40" height="1.40" fill="#3fb07a"/><rect x="233.60" y="27.00" width="1.40" height="1.40" fill="#3fb07a"/><rect x="235.00" y="27.00" width="1.40" height="1.40" fill="#3fb07a"/><rect x="236.40" y="27.00" width="1.40" height="1.40" fill="#3fb07a"/><rect x="237.80" y="27.00" width="1.40" height="1.40" fill="#3fb07a"/><rect x="239.20" y="27.00" width="1.40" height="1.40" fill="#3fb07a"/><rect x="228.00" y="28.40" width="1.40" height="1.40" fill="#3fb07a"/><rect x="229.40" y="28.40" width="1.40" height="1.40" fill="#3fb07a"/><rect x="230.80" y="28.40" width="1.40" height="1.40" fill="#3fb07a"/><rect x="236.40" y="28.40" width="1.40" height="1.40" fill="#3fb07a"/><rect x="237.80" y="28.40" width="1.40" height="1.40" fill="#3fb07a"/><rect x="239.20" y="28.40" width="1.40" height="1.40" fill="#3fb07a"/><rect x="228.00" y="29.80" width="1.40" height="1.40" fill="#3fb07a"/><rect x="229.40" y="29.80" width="1.40" height="1.40" fill="#3fb07a"/><rect x="230.80" y="29.80" width="1.40" height="1.40" fill="#3fb07a"/><rect x="233.60" y="29.80" width="1.40" height="1.40" fill="#3fb07a"/><rect x="235.00" y="29.80" width="1.40" height="1.40" fill="#3fb07a"/><rect x="236.40" y="29.80" width="1.40" height="1.40" fill="#3fb07a"/><rect x="237.80" y="29.80" width="1.40" height="1.40" fill="#3fb07a"/><rect x="239.20" y="29.80" width="1.40" height="1.40" fill="#3fb07a"/><rect x="228.00" y="31.20" width="1.40" height="1.40" fill="#3fb07a"/><rect x="229.40" y="31.20" width="1.40" height="1.40" fill="#3fb07a"/><rect x="230.80" y="31.20" width="1.40" height="1.40" fill="#3fb07a"/><rect x="232.20" y="31.20" width="1.40" height="1.40" fill="#3fb07a"/><rect x="233.60" y="31.20" width="1.40" height="1.40" fill="#3fb07a"/><rect x="235.00" y="31.20" width="1.40" height="1.40" fill="#3fb07a"/><rect x="236.40" y="31.20" width="1.40" height="1.40" fill="#3fb07a"/><rect x="237.80" y="31.20" width="1.40" height="1.40" fill="#3fb07a"/><rect x="239.20" y="31.20" width="1.40" height="1.40" fill="#3fb07a"/><text x="10.00" y="60.00" font-family="ui-monospace,'Courier New',monospace" font-size="6.5" fill="#ffb000" text-anchor="start">root@blackbox:~#</text><text x="78.00" y="60.00" font-family="ui-monospace,'Courier New',monospace" font-size="6.5" fill="#00ff9f" text-anchor="start">whoami</text><text x="10.00" y="72.00" font-family="ui-monospace,'Courier New',monospace" font-size="6.5" fill="#00ff9f" text-anchor="start">&gt; full-stack engineer &#215; security researcher</text><text x="10.00" y="88.00" font-family="ui-monospace,'Courier New',monospace" font-size="6.5" fill="#ffb000" text-anchor="start">root@blackbox:~#</text><text x="78.00" y="88.00" font-family="ui-monospace,'Courier New',monospace" font-size="6.5" fill="#00ff9f" text-anchor="start">./focus --list</text><text x="10.00" y="100.00" font-family="ui-monospace,'Courier New',monospace" font-size="6.5" fill="#3fb07a" text-anchor="start">&gt; appsec · pentest · secure-by-design · quant</text><text x="10.00" y="116.00" font-family="ui-monospace,'Courier New',monospace" font-size="6.5" fill="#00ff9f" text-anchor="start">[✓] recon complete // shell acquired</text><rect x="150.00" y="110.50" width="5.00" height="7.00" fill="#00ff9f"/></svg>